<?xml version="1.0" encoding="UTF-8" standalone="no"?>
<!-- Created with Inkscape (http://www.inkscape.org/) -->

<svg
   xmlns:dc="http://purl.org/dc/elements/1.1/"
   xmlns:cc="http://creativecommons.org/ns#"
   xmlns:rdf="http://www.w3.org/1999/02/22-rdf-syntax-ns#"
   xmlns:svg="http://www.w3.org/2000/svg"
   xmlns="http://www.w3.org/2000/svg"
   xmlns:xlink="http://www.w3.org/1999/xlink"
   xmlns:sodipodi="http://sodipodi.sourceforge.net/DTD/sodipodi-0.dtd"
   xmlns:inkscape="http://www.inkscape.org/namespaces/inkscape"
   width="256"
   height="256"
   viewBox="0 0 67.733332 67.733335"
   version="1.1"
   id="svg8"
   inkscape:version="0.92.3 (2405546, 2018-03-11)"
   sodipodi:docname="PRDL.svg">
  <defs
     id="defs2">
    <path
       d="m 64.6,76.7 c -25.9,0 -48.4,21.2 -49.9,47.1 L 6.3,268 c -1.5,25.9 17.1,54.5 41.4,63.7 l 60.1,22.7 c 24.3,9.1 64,9.1 88.2,0 l 60.1,-22.7 C 280.4,322.5 299,293.9 297.5,268 L 289.1,123.7 C 287.6,97.8 265.1,76.6 239.2,76.6 H 64.6 Z"
       id="SVGID_1_"
       inkscape:connector-curvature="0" />
  </defs>
  <sodipodi:namedview
     id="base"
     pagecolor="#ffffff"
     bordercolor="#666666"
     borderopacity="1.0"
     inkscape:pageopacity="0.0"
     inkscape:pageshadow="2"
     inkscape:zoom="2.1015625"
     inkscape:cx="68.04461"
     inkscape:cy="166.06691"
     inkscape:document-units="mm"
     inkscape:current-layer="g432"
     showgrid="false"
     inkscape:snap-page="true"
     showguides="true"
     inkscape:guide-bbox="true"
     inkscape:window-width="1366"
     inkscape:window-height="705"
     inkscape:window-x="-8"
     inkscape:window-y="-8"
     inkscape:window-maximized="1"
     units="px"
     inkscape:snap-grids="false">
    <sodipodi:guide
       position="228.44569,173.17142"
       orientation="1,0"
       id="guide473"
       inkscape:locked="false" />
  </sodipodi:namedview>
  <metadata
     id="metadata5">
    <rdf:RDF>
      <cc:Work
         rdf:about="">
        <dc:format>image/svg+xml</dc:format>
        <dc:type
           rdf:resource="http://purl.org/dc/dcmitype/StillImage" />
        <dc:title></dc:title>
      </cc:Work>
    </rdf:RDF>
  </metadata>
  <g
     inkscape:label="Layer 1"
     inkscape:groupmode="layer"
     id="layer1"
     transform="translate(0,-229.26665)">
    <g
       id="g432"
       transform="matrix(0.46130674,0,0,0.46445121,30.973464,60.454999)">
      <rect
         id="rect308"
         height="4.3344693"
         width="63.096745"
         y="385.84637"
         x="-25.150585"
         style="stroke-width:0.39333916" />
      <g
         id="g335"
         transform="matrix(0.39263688,0,0,0.39404267,-53.224123,362.40085)">
        <defs
           id="defs311">
          <path
             d="m 64.6,76.7 c -25.9,0 -48.4,21.2 -49.9,47.1 L 6.3,268 c -1.5,25.9 17.1,54.5 41.4,63.7 l 60.1,22.7 c 24.3,9.1 64,9.1 88.2,0 l 60.1,-22.7 C 280.4,322.5 299,293.9 297.5,268 L 289.1,123.7 C 287.6,97.8 265.1,76.6 239.2,76.6 H 64.6 Z"
             id="path393"
             inkscape:connector-curvature="0" />
        </defs>
        <clipPath
           id="SVGID_2_">
          <use
             id="use313"
             style="overflow:visible"
             xlink:href="#SVGID_1_"
             x="0"
             y="0"
             width="100%"
             height="100%" />
        </clipPath>
        <linearGradient
           gradientTransform="matrix(-298.9616,-340.5978,-340.5978,298.9616,126355.73,-110257.84)"
           y2="370.1022"
           x2="1"
           y1="370.1022"
           x1="0"
           gradientUnits="userSpaceOnUse"
           id="SVGID_3_">
          <stop
             id="stop316"
             style="stop-color:#E2322E"
             offset="0" />
          <stop
             id="stop318"
             style="stop-color:#E86131"
             offset="0.1124" />
          <stop
             id="stop320"
             style="stop-color:#F08F33"
             offset="0.3315" />
          <stop
             id="stop322"
             style="stop-color:#FDC704"
             offset="0.7191" />
          <stop
             id="stop324"
             style="stop-color:#FDCA08"
             offset="0.7951" />
          <stop
             id="stop326"
             style="stop-color:#FED114"
             offset="0.8665" />
          <stop
             id="stop328"
             style="stop-color:#FEDD22"
             offset="0.9357" />
          <stop
             id="stop330"
             style="stop-color:#FEEC31"
             offset="1" />
        </linearGradient>
        <polygon
           id="polygon333"
           clip-path="url(#SVGID_2_)"
           points="132.8,509.3 -137.4,201.5 170.9,-69.1 441.2,238.7 "
           class="st0"
           style="fill:url(#SVGID_3_)" />
      </g>
      <path
         id="path337"
         d="m 6.4174191,507.17213 c -6.59629961,0 -13.1533355,-0.94571 -18.1790871,-2.83711 l -23.597477,-8.94477 c -10.483405,-3.97983 -18.493197,-16.31337 -17.825714,-27.54358 l 3.298149,-56.86036 c 0.667483,-11.50604 10.561933,-20.84486 22.026929,-20.84486 h 68.5544 c 11.464997,0 21.359446,9.33882 22.026929,20.84486 l 3.298149,56.86036 c 0.667483,11.23021 -7.342309,23.56375 -17.825714,27.54358 l -23.597476,8.94477 c -5.025752,1.8914 -11.582788,2.83711 -18.1790879,2.83711 M -27.859781,395.06699 c -8.95212,0 -16.60854,7.28979 -17.158231,16.23456 l -3.29815,56.86035 c -0.510428,9.06298 6.203663,19.46571 14.684619,22.65746 l 23.597477,8.94476 c 8.912857,3.38877 23.990113,3.38877 32.90297,0 l 23.597477,-8.94476 c 8.480956,-3.19175 15.195047,-13.59448 14.645355,-22.65746 l -3.298149,-56.86035 c -0.510428,-8.94477 -8.206111,-16.23456 -17.158232,-16.23456 z"
         inkscape:connector-curvature="0"
         style="stroke-width:0.39333916" />
      <path
         id="path339"
         d="m 54.515437,414.6115 c -0.471164,-1.37915 -1.884657,-3.82221 -3.180359,-5.47719 -1.295702,-1.65498 -3.415941,-3.58579 -4.711642,-4.33447 -1.295702,-0.74868 -7.145992,0.8669 -10.130032,2.24604 l -2.159503,0.98511 c -2.98404,1.37915 -5.457652,2.48247 -5.496916,2.52187 -0.03926,0.0394 -0.392637,0 -0.667483,-0.11821 -0.274846,-0.11821 -3.572995,-0.9457 -6.753354,-1.69438 l -5.693235,-1.33975 c -3.180359,-0.74868 -6.8318816,-1.45795 -8.166847,-1.57617 -1.2957017,-0.11821 -6.87114538,0.82749 -10.0515041,1.53677 l -6.0858716,1.41855 c -3.1803583,0.74868 -6.0073443,1.37915 -6.2821903,1.49736 -0.274846,0.0788 -1.020856,0.35464 -1.060119,0.31524 -0.03926,-0.0394 -2.630667,-1.22153 -5.575444,-2.56128 l -2.159503,-0.98511 c -2.98404,-1.37914 -6.635563,-2.56127 -8.127583,-2.67949 -1.49202,-0.11821 -5.379126,3.11294 -6.674827,4.76792 -1.295702,1.65498 -2.748458,4.09804 -3.180359,5.47719 -0.471164,1.37915 2.041712,6.77754 3.887105,9.49643 l 3.73005,5.556 c 1.80613,2.7189 2.826986,5.87124 2.238031,6.97456 -0.588956,1.14272 -1.413493,3.11294 -1.80613,4.45268 -0.392637,1.33975 0.07853,7.09277 0.588955,10.32392 l 1.177911,6.89575 c 0.549692,3.23115 1.570547,6.97455 2.277294,8.27489 0.706746,1.33975 6.321454,3.6646 9.462549,4.45268 l 1.413492,0.35464 c 3.180359,0.78809 7.34231,3.6252 9.2269671,6.26528 l 2.5521397,3.54639 c 1.9239208,2.64008 4.3975331,5.5954 5.53618,6.5017 1.138647,0.9063 5.9288169,1.65498 7.813474,1.65498 1.884657,0 4.5545882,-0.31524 5.9680802,-0.70928 1.413493,-0.39404 5.457653,-4.76791 7.381574,-7.408 l 2.512876,-3.50698 c 1.92392,-2.64009 6.046608,-5.47719 9.226966,-6.26528 l 1.492021,-0.35464 c 3.180358,-0.78808 6.792618,-2.12783 8.049056,-2.91591 1.256438,-0.82749 3.141095,-6.58052 3.690786,-9.81167 l 1.177911,-6.89574 c 0.549692,-3.23115 0.942328,-7.01396 0.942328,-8.39311 -0.03926,-1.37915 -1.531283,-5.28017 -2.120239,-6.38349 -0.588955,-1.10332 0.392637,-4.25566 2.23803,-6.97456 l 3.730051,-5.556 c 1.727602,-2.7977 4.201214,-8.19609 3.769314,-9.57524 m -88.814462,6.30469 c -1.609812,-2.40366 -3.023304,-4.5709 -3.101832,-4.80732 v -0.23643 -0.31523 c 0.117791,-0.27583 1.295702,-1.852 2.591404,-3.50698 1.295701,-1.65498 2.552139,-3.07354 2.826985,-3.19175 0.235582,-0.11821 3.376677,1.10332 6.360718,2.48247 l 0.471164,0.19702 c 2.98404,1.37915 5.339861,2.56128 5.300598,2.64009 -0.03926,0.0788 -1.452757,2.67949 -2.98404,5.556 l -2.630668,4.92553 c -1.531283,2.87651 -7.185254,-1.30034 -8.834329,-3.7434 m 76.485664,22.38162 c 0.03926,0.78809 -0.392637,4.09804 -0.942329,7.32919 l -1.17791,6.89575 c -0.549692,3.23115 -1.177911,6.22587 -1.413493,6.61992 -0.235582,0.39404 -2.98404,1.37915 -5.339862,1.97021 -2.355821,0.59106 -4.201214,0.70928 -4.122687,0.23643 0.07853,-0.47285 -1.295702,-3.78281 -3.023304,-6.38349 -1.766866,-2.56128 -3.219622,-4.6103 -3.219622,-4.5315 0,0.0788 0.392637,2.20664 0.863801,4.49209 0.4319,2.28545 0.785274,4.72851 0.74601,5.43779 -0.03926,0.70928 -0.863801,2.32485 -1.099383,2.67949 -0.274846,0.35464 -1.452757,2.00962 -2.630667,3.62519 -1.177911,1.61558 -3.533732,4.92554 -5.222071,7.28979 -1.688339,2.36426 -3.494468,4.6103 -4.004896,4.96494 -0.510428,0.35464 -3.2588862,0.66987 -5.1435432,0.66987 -1.8846571,0 -3.9263688,-0.15762 -4.5153242,-0.35464 -0.5889553,-0.19702 -2.9447766,-2.95532 -4.6723788,-5.35898 -1.7276023,-2.40366 -4.0834236,-5.67421 -5.2613342,-7.32919 -1.1779107,-1.61558 -2.3165576,-3.23115 -2.5914036,-3.58579 -0.235582,-0.35464 -0.667483,-1.18213 -0.903065,-1.81259 -0.235582,-0.66988 0.117791,-3.97984 0.549692,-6.26528 0.431901,-2.28545 0.824537,-4.25566 0.824537,-4.33447 0,-0.0788 -1.413492,1.77319 -3.180358,4.37387 -1.766866,2.56128 -3.180359,5.08315 -3.141095,5.5166 0.03926,0.47285 -1.649075,1.18213 -4.004897,0.59106 -2.355821,-0.59106 -4.593851,-1.30034 -4.986488,-1.57617 -0.392637,-0.27583 -1.256438,-3.78281 -1.80613,-7.01396 l -1.17791,-6.89574 c -0.549692,-3.23115 -0.981592,-6.54111 -0.942329,-7.3292 0.03926,-0.78808 0.903065,-3.03413 1.334966,-3.86162 0.4319,-0.82749 2.041711,-3.82221 3.572995,-6.73813 l 5.732499,-10.75736 c 1.531284,-2.87651 3.180358,-5.63481 3.651523,-6.14707 0.471164,-0.47285 1.766866,-1.10332 1.845393,-1.10332 0.07853,0 2.709195,-0.63046 5.8895533,-1.33974 l 5.8895532,-1.33975 c 3.1803587,-0.74868 6.5177722,-1.37915 7.4601007,-1.45795 0.9030648,-0.0788 5.4576528,0.74868 8.6380118,1.49736 l 5.496916,1.30034 c 3.180359,0.74868 5.811026,1.37915 5.889553,1.37915 0.03926,0 0.588955,0.31523 1.177911,0.63047 0.588955,0.31523 2.748458,3.7434 4.319005,6.65932 l 5.732499,10.75736 c 1.531284,2.87651 3.141095,5.91064 3.572995,6.73813 0.392637,0.82749 1.295702,3.07353 1.334966,3.86162 m 8.009792,-27.14954 c -0.07853,0.23643 -1.49202,2.36426 -3.101831,4.80732 -1.609811,2.40366 -7.303046,6.61992 -8.83433,3.74341 l -2.630667,-4.88613 c -1.531284,-2.87651 -2.826986,-5.31958 -2.905513,-5.39839 -0.03926,-0.0788 2.23803,-1.41855 5.222071,-2.7977 l 0.471164,-0.19702 c 2.98404,-1.37915 5.693235,-2.48247 6.007344,-2.48247 0.353373,0 1.884657,1.57617 3.180359,3.23115 1.295701,1.65498 2.473612,3.23115 2.591403,3.50698 v 0.31523 z"
         inkscape:connector-curvature="0"
         style="stroke-width:0.39333916" />
      <path
         id="path341"
         d="m -1.9064828,460.12343 c -0.7067464,-1.41855 0,-2.56128 1.57054754,-2.56128 H 13.13151 c 1.570547,0 2.277294,1.14273 1.570547,2.56128 l -7.0281999,7.99907 c -0.7067464,1.41855 -1.8453933,1.41855 -2.5521397,0 z"
         inkscape:connector-curvature="0"
         style="stroke-width:0.39333916" />
      <path
         id="path343"
         d="m 6.4174191,477.30369 c 0,0 0.9423285,0.8669 2.1202391,1.93081 l 4.5545878,4.17685 c 1.177911,1.06392 2.434349,1.18213 2.826986,0.23643 0.392636,-0.9457 -0.353374,-2.44306 -1.649075,-3.30996 L 9.951151,477.3825 c -1.2957017,-0.9063 -2.3558213,-1.65498 -2.3558213,-1.69438 0,-0.0394 0,-1.41856 0,-2.99473 v -8.07787 c 0,-1.57617 -0.2355821,-3.38877 -0.5104279,-4.05864 H 6.4174191 5.7499364 c -0.2748458,0.63047 -0.510428,2.48247 -0.510428,4.05864 v 8.07787 c 0,1.57617 0,2.91592 0,2.91592 0,0.0394 -1.0601195,0.86689 -2.3558212,1.73379 l -4.3190057,2.95532 c -1.2957017,0.9063 -2.0417118,2.36425 -1.6490749,3.30996 0.3926369,0.9457 1.6490749,0.82748 2.82698551,-0.23643 L 4.2971799,479.1951 c 1.1779107,-1.02451 2.1202392,-1.89141 2.1202392,-1.89141"
         inkscape:connector-curvature="0"
         style="stroke-width:0.39333916" />
      <path
         id="path345"
         d="m -18.59355,438.92394 c -1.688339,0.0394 -1.688339,0.27583 -0.03926,0.51225 l 14.0171367,2.00962 c 1.6883386,0.23643 2.905513,1.8126 2.7484582,3.50698 l -1.8061296,6.26528 c -0.1570548,1.69438 0.3533731,3.11293 1.1779106,3.15234 0.7852738,0.0394 1.4527565,0.0394 1.4527565,0 0,-0.0788 0.0785273,-1.49736 0.1570547,-3.19175 l 1.45275646,-5.87123 c 0.0785274,-1.69439 0.15705475,-3.94043 0.19631844,-5.00434 0.0392637,-1.06392 -0.39263688,-1.89141 -0.9815922,-1.89141 -0.58895532,0 -2.4343487,0.0788 -4.1226872,0.11821 z"
         inkscape:connector-curvature="0"
         style="stroke-width:0.39333916" />
      <path
         id="path347"
         d="m 17.136406,438.52989 c -1.688339,-0.0394 -3.533732,-0.11821 -4.122687,-0.11821 -0.588956,0 -1.020856,0.82749 -0.981593,1.89141 0.03926,1.06391 0.157055,3.30995 0.235583,5.00434 l 1.452756,5.87123 c 0.07853,1.69439 0.117791,3.11294 0.157055,3.19175 0,0.0788 0.667482,0.0788 1.452756,0 0.785274,-0.0394 1.334966,-1.49736 1.177911,-3.15234 l -1.766866,-6.26528 c -0.157055,-1.69438 1.099383,-3.27055 2.748458,-3.50698 l 14.017137,-2.00962 c 1.649075,-0.23642 1.649075,-0.47285 -0.03926,-0.51225 z"
         inkscape:connector-curvature="0"
         style="stroke-width:0.39333916" />
      <path
         id="path349"
         d="m -5.9899063,441.05177 c 0,1.06391 -0.8638012,1.97021 -1.9631844,1.97021 -1.0601196,0 -1.9239207,-0.86689 -1.9239207,-1.97021 0,-1.06392 0.8638011,-1.93081 1.9239207,-1.93081 1.0993832,-0.0394 1.9631844,0.86689 1.9631844,1.93081"
         inkscape:connector-curvature="0"
         style="stroke-width:0.39333916" />
      <path
         id="path351"
         d="m 22.71185,441.05177 c 0,1.06391 -0.863802,1.97021 -1.963185,1.97021 -1.060119,0 -1.963184,-0.86689 -1.963184,-1.97021 0,-1.06392 0.863801,-1.93081 1.963184,-1.93081 1.06012,-0.0394 1.963185,0.86689 1.963185,1.93081"
         inkscape:connector-curvature="0"
         style="stroke-width:0.39333916" />
      <path
         id="path353"
         d="m -1.3175275,465.08837 c -10.7189865,2.60068 -21.3987095,8.23549 -29.6440845,15.60409 -0.588955,0.51226 0.157055,1.30034 0.74601,0.9063 4.593852,-3.11294 8.991385,-6.38349 13.860082,-8.98418 4.868697,-2.60068 9.9729768,-4.57089 15.2735747,-6.14706 0.82453741,-0.27583 0.62821897,-1.57617 -0.2355822,-1.37915"
         inkscape:connector-curvature="0"
         style="stroke-width:0.39333916" />
      <path
         id="path355"
         d="m -1.0426816,468.91058 c -4.5938515,0.35464 -8.559484,2.99473 -11.9754244,5.91064 -3.651523,3.07354 -7.145992,6.69873 -9.776659,10.67856 -0.314109,0.47285 0.31411,1.06392 0.74601,0.66987 6.28219,-6.14706 11.975425,-14.54017 21.24165548,-16.15575 0.6674827,-0.11821 0.47116426,-1.14272 -0.23558208,-1.10332"
         inkscape:connector-curvature="0"
         style="stroke-width:0.39333916" />
      <path
         id="path357"
         d="m -0.25740789,472.65399 c -4.43679671,1.14272 -7.81347391,4.29506 -10.71898711,7.72324 -3.180358,3.7434 -6.007344,7.99906 -8.009792,12.45174 -0.235582,0.51226 0.549692,0.9063 0.863801,0.47285 5.065016,-7.17157 9.3054941,-16.39217 18.17908762,-19.58392 0.628219,-0.23642 0.27484581,-1.22153 -0.31410951,-1.06391"
         inkscape:connector-curvature="0"
         style="stroke-width:0.39333916" />
      <path
         id="path359"
         d="m 13.798992,466.38871 c 5.418389,1.61558 10.64046,3.58579 15.626948,6.30468 4.79017,2.60068 9.14844,5.83183 13.663764,8.90537 0.628219,0.43344 1.217174,-0.47285 0.667482,-0.9457 -8.20611,-7.28979 -18.84657,-12.9246 -29.487029,-15.52529 -0.824538,-0.19702 -1.334966,1.02452 -0.471165,1.26094"
         inkscape:connector-curvature="0"
         style="stroke-width:0.39333916" />
      <path
         id="path361"
         d="m 13.720465,470.0139 c 9.226967,1.61558 14.920201,9.96928 21.163128,16.07694 0.471164,0.47286 1.099383,-0.11821 0.74601,-0.63046 -2.669931,-3.97984 -6.164399,-7.60503 -9.815922,-10.67856 -3.415941,-2.91592 -7.420837,-5.5166 -11.975425,-5.87124 -0.74601,-0.0394 -0.824537,0.98511 -0.117791,1.10332"
         inkscape:connector-curvature="0"
         style="stroke-width:0.39333916" />
      <path
         id="path363"
         d="m 12.778137,473.7179 c 8.834329,3.19175 13.114071,12.41235 18.179087,19.58392 0.353373,0.47286 1.06012,-0.0394 0.824538,-0.55165 -1.963185,-4.37388 -4.750907,-8.51133 -7.813474,-12.21533 -2.86625,-3.46757 -6.360718,-6.77753 -10.797515,-7.88085 -0.667482,-0.15762 -1.060119,0.82749 -0.392636,1.06391"
         inkscape:connector-curvature="0"
         style="stroke-width:0.39333916" />
      <path
         id="path365"
         d="m -8.8561556,419.89168 c 0,2.16723 -1.4134924,3.94042 -3.1410954,3.94042 -1.727602,0 -3.141095,-1.77319 -3.141095,-3.94042 0,-2.16724 1.413493,-3.94043 3.141095,-3.94043 1.727603,0 3.1410954,1.77319 3.1410954,3.94043"
         inkscape:connector-curvature="0"
         style="stroke-width:0.39333916" />
      <path
         id="path367"
         d="m -13.096634,427.45729 c 0,1.45796 -1.177911,2.64009 -2.630667,2.64009 -1.452756,0 -2.630667,-1.18213 -2.630667,-2.64009 0,-1.45795 1.177911,-2.64008 2.630667,-2.64008 1.452756,0 2.630667,1.18213 2.630667,2.64008"
         inkscape:connector-curvature="0"
         style="stroke-width:0.39333916" />
      <path
         id="path369"
         d="m -1.1604727,418.90657 c -0.510428,1.65498 -1.6098112,2.7977 -2.4343487,2.52187 -0.8245374,-0.27583 -1.0601195,-1.81259 -0.5496916,-3.46757 0.5104279,-1.65498 1.6098112,-2.79771 2.4343487,-2.52188 0.8245374,0.23643 1.06011953,1.8126 0.5496916,3.46758"
         inkscape:connector-curvature="0"
         style="stroke-width:0.39333916" />
      <path
         id="path371"
         d="m -5.1261052,428.28478 c 0,0.8669 -0.8245374,1.57618 -1.8453933,1.57618 -1.0208559,0 -1.8453934,-0.70928 -1.8453934,-1.57618 0,-0.86689 0.8245375,-1.57617 1.8453934,-1.57617 1.0208559,0 1.8453933,0.66988 1.8453933,1.57617"
         inkscape:connector-curvature="0"
         style="stroke-width:0.39333916" />
      <path
         id="path373"
         d="m 33.509364,458.35024 c -0.628219,1.30034 -0.117791,2.87651 1.17791,3.50698 1.295702,0.63047 2.86625,0.11821 3.494469,-1.18213 0.628219,-1.30034 0.117791,-2.87651 -1.177911,-3.50698 -1.295702,-0.63047 -2.866249,-0.11821 -3.494468,1.18213"
         inkscape:connector-curvature="0"
         style="stroke-width:0.39333916" />
      <path
         id="path375"
         d="m 34.137583,451.65151 c -0.274846,1.73379 0.196318,3.23115 1.060119,3.34937 0.863802,0.11821 1.766866,-1.14273 2.041712,-2.87651 0.274846,-1.73379 -0.196318,-3.23115 -1.060119,-3.34937 -0.863802,-0.15761 -1.80613,1.14273 -2.041712,2.87651"
         inkscape:connector-curvature="0"
         style="stroke-width:0.39333916" />
      <path
         id="path377"
         d="m 29.308149,455.63135 c -0.392637,0.78808 0.03926,1.77319 0.942329,2.24604 0.903065,0.47285 1.963184,0.19702 2.355821,-0.59107 0.392637,-0.78808 -0.03926,-1.77319 -0.942329,-2.24604 -0.903064,-0.43345 -1.963184,-0.19702 -2.355821,0.59107"
         inkscape:connector-curvature="0"
         style="stroke-width:0.39333916" />
      <path
         id="path379"
         d="m 35.668867,363.46477 h -58.542159 c -1.256438,0 -2.277294,1.02451 -2.277294,2.28544 v 17.96835 h 63.096747 v -17.96835 c 0.03926,-1.26093 -1.020856,-2.28544 -2.277294,-2.28544 m -38.8710515,13.51566 h -3.4944682 v -6.81694 h 3.4944682 z m 22.6944115,0 h -3.494468 v -6.81694 h 3.494468 z"
         inkscape:connector-curvature="0"
         style="stroke-width:0.39333916" />
      <rect
         id="rect381"
         height="145.83519"
         width="119.28308"
         class="st1"
         x="-53.224121"
         y="362.40085"
         style="fill:none;stroke-width:0.39333916" />
    </g>
  </g>
  <style
     id="style306"
     type="text/css">
	.st0{clip-path:url(#SVGID_2_);fill:url(#SVGID_3_);}
	.st1{fill:none;}
</style>
</svg>
