<?xml version="1.0" encoding="UTF-8" standalone="no"?>
<!-- Created with Inkscape (http://www.inkscape.org/) -->

<svg
   width="64"
   height="64"
   viewBox="0 0 16.933333 16.933334"
   version="1.1"
   id="svg8"
   inkscape:version="1.3 (0e150ed6c4, 2023-07-21)"
   sodipodi:docname="pardus-installer.svg"
   xmlns:inkscape="http://www.inkscape.org/namespaces/inkscape"
   xmlns:sodipodi="http://sodipodi.sourceforge.net/DTD/sodipodi-0.dtd"
   xmlns="http://www.w3.org/2000/svg"
   xmlns:svg="http://www.w3.org/2000/svg"
   xmlns:rdf="http://www.w3.org/1999/02/22-rdf-syntax-ns#"
   xmlns:cc="http://creativecommons.org/ns#"
   xmlns:dc="http://purl.org/dc/elements/1.1/"
   xmlns:sketch="http://www.bohemiancoding.com/sketch/ns">
  <defs
     id="defs2">
    <path
       d="m 64.6,76.7 c -25.9,0 -48.4,21.2 -49.9,47.1 L 6.3,268 c -1.5,25.9 17.1,54.5 41.4,63.7 l 60.1,22.7 c 24.3,9.1 64,9.1 88.2,0 l 60.1,-22.7 C 280.4,322.5 299,293.9 297.5,268 L 289.1,123.7 C 287.6,97.8 265.1,76.6 239.2,76.6 H 64.6 Z"
       id="SVGID_1_"
       inkscape:connector-curvature="0" />
    <linearGradient
       id="SVGID_1_-5"
       gradientUnits="userSpaceOnUse"
       x1="-351.01849"
       y1="-48.4907"
       x2="-351.01849"
       y2="-75.323502"
       gradientTransform="matrix(1,0,0,-1,0,-121.5918)">
      <stop
         offset="0"
         style="stop-color:#5FB672"
         id="stop59" />
      <stop
         offset="1"
         style="stop-color:#32B18C"
         id="stop60" />
    </linearGradient>
    <linearGradient
       id="SVGID_00000129901450951144020920000007753056098303935627_"
       gradientUnits="userSpaceOnUse"
       x1="-434.02811"
       y1="-74.135002"
       x2="-434.02811"
       y2="-49.8008"
       gradientTransform="matrix(1,0,0,-1,0,-121.5918)">
      <stop
         offset="0"
         style="stop-color:#27AFD9"
         id="stop80" />
      <stop
         offset="1"
         style="stop-color:#42BDD9"
         id="stop81" />
    </linearGradient>
    <linearGradient
       id="SVGID_00000178168103916819199540000013946339910692155535_"
       gradientUnits="userSpaceOnUse"
       x1="-195.60921"
       y1="-62.849098"
       x2="-195.60921"
       y2="-57.944199"
       gradientTransform="matrix(1,0,0,-1,0,-121.5918)">
      <stop
         offset="0"
         style="stop-color:#27AFD9"
         id="stop96" />
      <stop
         offset="1"
         style="stop-color:#42BDD9"
         id="stop97" />
    </linearGradient>
    <linearGradient
       id="SVGID_00000051345754610491515170000012538977290887660704_"
       gradientUnits="userSpaceOnUse"
       x1="-136.933"
       y1="-59.6376"
       x2="-108.5382"
       y2="-59.6376"
       gradientTransform="matrix(1,0,0,-1,0,-121.5918)">
      <stop
         offset="0"
         style="stop-color:#27AFD9"
         id="stop185" />
      <stop
         offset="1"
         style="stop-color:#42BDD9"
         id="stop186" />
    </linearGradient>
  </defs>
  <sodipodi:namedview
     id="base"
     pagecolor="#ffffff"
     bordercolor="#666666"
     borderopacity="1.0"
     inkscape:pageopacity="0.0"
     inkscape:pageshadow="2"
     inkscape:zoom="2.8284271"
     inkscape:cx="64.346718"
     inkscape:cy="81.140504"
     inkscape:document-units="px"
     inkscape:current-layer="g432"
     showgrid="false"
     inkscape:snap-page="true"
     showguides="true"
     inkscape:guide-bbox="true"
     inkscape:window-width="1920"
     inkscape:window-height="1127"
     inkscape:window-x="0"
     inkscape:window-y="0"
     inkscape:window-maximized="1"
     units="px"
     inkscape:snap-grids="false"
     inkscape:showpageshadow="2"
     inkscape:pagecheckerboard="0"
     inkscape:deskcolor="#d1d1d1">
    <sodipodi:guide
       position="228.44569,173.17142"
       orientation="1,0"
       id="guide473"
       inkscape:locked="false" />
  </sodipodi:namedview>
  <metadata
     id="metadata5">
    <rdf:RDF>
      <cc:Work
         rdf:about="">
        <dc:format>image/svg+xml</dc:format>
        <dc:type
           rdf:resource="http://purl.org/dc/dcmitype/StillImage" />
      </cc:Work>
    </rdf:RDF>
  </metadata>
  <g
     inkscape:label="Layer 1"
     inkscape:groupmode="layer"
     id="layer1"
     transform="translate(0,-229.26665)">
    <g
       id="g432"
       transform="matrix(0.46130674,0,0,0.46445121,30.973464,60.454999)">
      <g
         id="Tech_sliced"
         sketch:type="MSLayerGroup"
         transform="matrix(3.3735958,0,0,3.3507556,-1381.2061,175.82243)"
         style="fill:none;fill-rule:evenodd;stroke:none;stroke-width:1" />
      <path
         class="st0"
         d="m -35.36811,390.55251 v -17.71669 c -0.172065,-2.39261 -2.007431,-4.21555 -4.416349,-4.44342 h -17.894817 c -2.466273,0.1709 -4.41635,2.16474 -4.53106,4.61432 v 17.43186 0 c 0.172066,2.56351 2.179497,4.55735 4.703125,4.55735 h 17.550686 c 2.408918,0 4.41635,-1.93687 4.588415,-4.44342 z"
         id="path1"
         style="opacity:0.3;fill:#ffffff;stroke-width:0.571607;enable-background:new"
         clip-path="url(#SVGID_2_)" />
      <path
         class="st21"
         d="m -61.292653,373.09217 v -0.11394 c 0.11471,-1.99384 1.720656,-3.58891 3.670732,-3.75981 h 0.11471 17.608042 0.11471 c 1.892721,0.11393 3.441311,1.70901 3.556021,3.64588 v 0.11393 17.60277 c -0.11471,1.99384 -1.77801,3.58891 -3.728087,3.58891 h -17.550686 c -2.007431,0 -3.670732,-1.59507 -3.842797,-3.70285 v -0.057 z"
         id="path2"
         style="fill:#edefef;fill-opacity:1;stroke-width:0.571607" />
      <rect
         style="fill:#ebf3f8;fill-opacity:1;stroke:none;stroke-width:0.582889;stroke-linecap:round;stroke-linejoin:round;stroke-dasharray:none;stroke-opacity:1"
         id="rect31"
         width="25.036062"
         height="9.3785477"
         x="-61.508339"
         y="384.16568"
         ry="2.8381245" />
      <g
         id="g3"
         transform="matrix(0,0.56966874,-0.57355185,0,-84.234725,324.5279)">
        <path
           class="st2"
           d="m 85.3,-38.9 h -0.2 c -4.1,-0.2 -7.3,-3.4 -7.6,-7.4 v -0.3 -30.7 -0.2 c 0.3,-3.9 3.4,-6.9 7.3,-7.2 h 0.2 30.9 c 4.1,0.3 7.3,3.6 7.3,7.5 v 30.6 c 0,4.1 -3.3,7.4 -7.5,7.7 h -0.1 z M 85.1,-82.6 H 85 c -2.9,0.2 -5.2,2.4 -5.4,5.2 v 0.1 30.8 c 0.2,2.9 2.6,5.2 5.6,5.4 h 0.1 30.4 c 3.1,-0.2 5.5,-2.7 5.5,-5.6 v -30.6 c 0,-2.8 -2.3,-5.2 -5.3,-5.4 z"
           id="path3"
           style="fill:#2f3536" />
      </g>
      <path
         style="fill:#2f3536;fill-opacity:1;stroke-width:11.5465"
         d="m -57.669603,382.91253 c -2.294205,0.1709 -4.129798,1.99362 -4.244508,4.32926 v 0.0367 l 1.235601,0.0556 c 0.124209,-1.69904 1.467919,-3.11206 3.12429,-3.22552 h 17.664723 0.05713 c 1.605943,0.11394 2.950811,1.50307 3.065522,3.15511 l -0.0095,0.0505 0.03168,-0.042 1.099675,0.006 v -0.0935 -0.11349 c -0.172065,-2.2217 -1.892274,-3.98812 -4.129125,-4.15902 h -0.115382 -17.607592 z"
         id="rect25"
         sodipodi:nodetypes="ccccccccccccccccc" />
      <rect
         style="fill:#27afd9;fill-opacity:1;stroke-width:12.5174"
         id="rect15"
         width="2.3287811"
         height="1.6380419"
         x="-57.206886"
         y="387.96475"
         ry="0.37536547" />
      <path
         style="fill:#2f3536;fill-opacity:0.0674157;stroke-width:11.5465"
         d="m -57.669603,369.24045 c -2.294205,0.1709 -4.129798,1.99362 -4.244508,4.32926 v 0.0367 l 1.235601,0.0556 c 0.124209,-1.69904 1.467919,-3.11206 3.12429,-3.22552 h 17.664723 0.05713 c 1.605943,0.11394 2.950811,1.50307 3.065522,3.15511 l -0.0095,0.0505 0.03168,-0.042 1.099675,0.006 v -0.0935 -0.11349 c -0.172065,-2.2217 -1.892274,-3.98812 -4.129125,-4.15902 h -0.115382 -17.607592 z"
         id="path30"
         sodipodi:nodetypes="ccccccccccccccccc" />
      <polygon
         class="st25"
         points="180.7,-58.6 187.2,-58.6 176.3,-77.5 165.4,-58.6 171.9,-58.6 171.9,-45.5 180.7,-45.5 "
         id="polygon17"
         transform="matrix(0.50144513,0,0,-0.49805018,-133.49073,351.10978)"
         style="fill:#36b7d9;fill-opacity:1;stroke:#2f3536;stroke-width:1.75739;stroke-linecap:round;stroke-linejoin:round;stroke-dasharray:none;stroke-opacity:1" />
      <rect
         style="fill:#27afd9;fill-opacity:1;stroke-width:12.5174"
         id="rect32"
         width="2.3287811"
         height="1.6380419"
         x="-52.918198"
         y="387.94016"
         ry="0.37536547" />
    </g>
  </g>
  <style
     id="style306"
     type="text/css">&#10;	.st0{clip-path:url(#SVGID_2_);fill:url(#SVGID_3_);}&#10;	.st1{fill:none;}&#10;</style>
</svg>
